<svg xmlns="http://www.w3.org/2000/svg" viewBox="0 0 32 32">
  <path d="M14.3 3.5 L15.8 9.8 C16 10.6 16.6 11.2 17.4 11.4 L23.7 12.9 L17.4 14.4 C16.6 14.6 16 15.2 15.8 16 L14.3 22.3 L12.8 16 C12.6 15.2 12 14.6 11.2 14.4 L4.9 12.9 L11.2 11.4 C12 11.2 12.6 10.6 12.8 9.8 Z" fill="#0A66C2"/>
  <path d="M24 4 L24.6 6.4 C24.7 6.8 25 7.1 25.4 7.2 L27.8 7.8 L25.4 8.4 C25 8.5 24.7 8.8 24.6 9.2 L24 11.6 L23.4 9.2 C23.3 8.8 23 8.5 22.6 8.4 L20.2 7.8 L22.6 7.2 C23 7.1 23.3 6.8 23.4 6.4 Z" fill="#378FE9"/>
</svg>
