<svg xmlns="http://www.w3.org/2000/svg" viewBox="0 0 32 32">
  <rect width="32" height="32" rx="7" fill="#EAF2FB"/>
  <path d="M14 4L15.5 12.4C15.7 13.4 16.5 14.2 17.5 14.4L26 16L17.5 17.6C16.5 17.8 15.7 18.6 15.5 19.6L14 28L12.5 19.6C12.3 18.6 11.5 17.8 10.5 17.6L2 16L10.5 14.4C11.5 14.2 12.3 13.4 12.5 12.4Z" fill="#0A66C2"/>
  <path d="M25 6L25.5 8.8C25.6 9.3 26 9.7 26.5 9.8L29.5 10.5L26.5 11.2C26 11.3 25.6 11.7 25.5 12.2L25 15L24.5 12.2C24.4 11.7 24 11.3 23.5 11.2L20.5 10.5L23.5 9.8C24 9.7 24.4 9.3 24.5 8.8Z" fill="#378FE9"/>
</svg>
